{
	"asset":{
		"version":"2.0",
		"generator":"Maxon Cinema 4D 2026.1.0 (#200000219)"
	},
	"scenes":[{
		"nodes":[0]
	}],
	"nodes":[{
		"name":"GridAnimationTest",
		"children":[1]
	},
	{
		"name":"Cloner",
		"children":[2,
		3,
		4,
		5,
		6,
		7,
		8,
		9,
		10,
		11,
		12,
		13,
		14,
		15,
		16,
		17,
		18,
		19,
		20,
		21,
		22,
		23,
		24,
		25,
		26,
		27,
		28,
		29,
		30,
		31,
		32,
		33,
		34,
		35,
		36,
		37,
		38,
		39,
		40,
		41,
		42,
		43,
		44,
		45,
		46,
		47,
		48,
		49,
		50,
		51,
		52,
		53,
		54,
		55,
		56,
		57,
		58,
		59,
		60,
		61,
		62,
		63,
		64,
		65,
		66,
		67,
		68,
		69,
		70,
		71,
		72,
		73,
		74,
		75,
		76,
		77,
		78,
		79,
		80,
		81,
		82,
		83,
		84,
		85,
		86,
		87,
		88,
		89,
		90,
		91,
		92,
		93,
		94,
		95,
		96,
		97,
		98,
		99,
		100,
		101,
		102,
		103,
		104,
		105,
		106,
		107,
		108,
		109,
		110,
		111,
		112,
		113,
		114,
		115,
		116,
		117,
		118,
		119,
		120,
		121,
		122,
		123,
		124,
		125,
		126,
		127,
		128,
		129,
		130,
		131,
		132,
		133,
		134,
		135,
		136,
		137,
		138,
		139,
		140,
		141,
		142,
		143,
		144,
		145,
		146,
		147,
		148,
		149,
		150,
		151,
		152,
		153,
		154,
		155,
		156,
		157,
		158,
		159,
		160,
		161,
		162,
		163,
		164,
		165,
		166,
		167,
		168,
		169,
		170,
		171,
		172,
		173,
		174,
		175,
		176,
		177,
		178,
		179,
		180,
		181,
		182,
		183,
		184,
		185,
		186,
		187,
		188,
		189,
		190,
		191,
		192,
		193,
		194,
		195,
		196,
		197,
		198,
		199,
		200,
		201,
		202,
		203,
		204,
		205,
		206,
		207,
		208,
		209,
		210,
		211,
		212,
		213,
		214,
		215,
		216,
		217]
	},
	{
		"name":"Cube.2 0",
		"mesh":0,
		"translation":[-4.930086612701416,
		-8.518614768981934,
		5.235291481018066],
		"rotation":[-0.00039117515552788973,
		-0.9549298286437988,
		0.23809270560741425,
		-0.17725901305675507],
		"scale":[1.069766640663147,
		1.069766640663147,
		1.069766640663147]
	},
	{
		"name":"Cube.1 1",
		"mesh":1,
		"translation":[-2.331561326980591,
		-8.154541015625,
		5.22821044921875],
		"rotation":[0.4305110275745392,
		0.39227432012557986,
		-0.6233595013618469,
		0.5217317342758179],
		"scale":[0.9630534052848816,
		0.9630534052848816,
		0.9630534052848816]
	},
	{
		"name":"Cube 2",
		"mesh":2,
		"translation":[-0.30777716636657717,
		-8.956884384155274,
		5.340583324432373],
		"rotation":[0.4008627235889435,
		0.8102985620498657,
		-0.38427919149398806,
		-0.18722942471504212],
		"scale":[1.3384591341018677,
		1.3384591341018677,
		1.3384591341018677]
	},
	{
		"name":"Cube.2 3",
		"mesh":0,
		"translation":[0.6019972562789917,
		-8.423529624938965,
		5.835050106048584],
		"rotation":[0.4730989336967468,
		0.5817751288414002,
		0.15331237018108369,
		0.6435918211936951],
		"scale":[1.4354193210601807,
		1.4354193210601807,
		1.4354193210601807]
	},
	{
		"name":"Cube.1 4",
		"mesh":1,
		"translation":[3.178119659423828,
		-7.985930919647217,
		5.523133754730225],
		"rotation":[0.6879390478134155,
		0.1939113438129425,
		-0.3182092607021332,
		0.6228010058403015],
		"scale":[1.1548665761947632,
		1.1548665761947632,
		1.1548665761947632]
	},
	{
		"name":"Cube 5",
		"mesh":2,
		"translation":[4.8186163902282719,
		-8.520692825317383,
		5.9901533126831059],
		"rotation":[0.49080944061279299,
		0.7205142378807068,
		-0.10726194083690644,
		0.47797513008117678],
		"scale":[0.7942941188812256,
		0.7942941188812256,
		0.7942941188812256]
	},
	{
		"name":"Cube.2 6",
		"mesh":0,
		"translation":[-5.05665922164917,
		-4.481370449066162,
		4.933259010314941],
		"rotation":[-0.21380150318145753,
		-0.5828254222869873,
		0.7187049388885498,
		-0.3131559491157532],
		"scale":[0.6497498154640198,
		0.6497498154640198,
		0.6497498154640198]
	},
	{
		"name":"Cube.1 7",
		"mesh":1,
		"translation":[-2.9385974407196047,
		-4.3503031730651859,
		4.929233551025391],
		"rotation":[0.1312977820634842,
		-0.6984977722167969,
		0.48463210463523867,
		-0.5098955631256104],
		"scale":[0.5730867981910706,
		0.5730867981910706,
		0.5730867981910706]
	},
	{
		"name":"Cube 8",
		"mesh":2,
		"translation":[-0.2757354974746704,
		-4.7453155517578129,
		5.069576740264893],
		"rotation":[-0.009339326061308384,
		-0.8152293562889099,
		0.5606257319450378,
		-0.14495724439620973],
		"scale":[0.5084900259971619,
		0.5084900259971619,
		0.5084900259971619]
	},
	{
		"name":"Cube.2 9",
		"mesh":0,
		"translation":[-0.12911473214626313,
		-4.800423622131348,
		5.191788673400879],
		"rotation":[0.29381605982780459,
		0.3923147916793823,
		0.22607803344726563,
		0.8418135046958923],
		"scale":[1.0321080684661866,
		1.0321080684661866,
		1.0321080684661866]
	},
	{
		"name":"Cube.1 10",
		"mesh":1,
		"translation":[3.3200931549072267,
		-4.914299011230469,
		4.785380840301514],
		"rotation":[0.406284898519516,
		-0.26923710107803347,
		-0.8025407791137695,
		0.3440527319908142],
		"scale":[1.0844727754592896,
		1.0844727754592896,
		1.0844727754592896]
	},
	{
		"name":"Cube 11",
		"mesh":2,
		"translation":[4.817358493804932,
		-4.422346115112305,
		4.126034736633301],
		"rotation":[0.336089551448822,
		-0.3454093039035797,
		0.829084038734436,
		-0.28347116708755495],
		"scale":[0.5841642618179321,
		0.5841642618179321,
		0.5841642618179321]
	},
	{
		"name":"Cube.2 12",
		"mesh":0,
		"translation":[-5.854082107543945,
		-1.2974560260772706,
		5.553774833679199],
		"rotation":[0.35092389583587649,
		0.4281751811504364,
		0.19555982947349549,
		0.809490442276001],
		"scale":[0.8992828130722046,
		0.8992828130722046,
		0.8992828130722046]
	},
	{
		"name":"Cube.1 13",
		"mesh":1,
		"translation":[-2.741420030593872,
		-1.788562297821045,
		4.629034996032715],
		"rotation":[-0.03740609809756279,
		-0.16437196731567384,
		0.9347766637802124,
		-0.3126903176307678],
		"scale":[0.8653852343559265,
		0.8653852343559265,
		0.8653852343559265]
	},
	{
		"name":"Cube 14",
		"mesh":2,
		"translation":[-0.94566810131073,
		-1.3872871398925782,
		5.933152675628662],
		"rotation":[0.47697314620018008,
		0.7943536639213562,
		-0.0038918249774724247,
		0.37614327669143679],
		"scale":[0.633956789970398,
		0.633956789970398,
		0.633956789970398]
	},
	{
		"name":"Cube.2 15",
		"mesh":0,
		"translation":[1.1141657829284669,
		-1.375146746635437,
		4.608549118041992],
		"rotation":[0.18485501408576966,
		-0.10008623450994492,
		-0.8332114815711975,
		0.5114391446113586],
		"scale":[0.5213531255722046,
		0.5213531255722046,
		0.5213531255722046]
	},
	{
		"name":"Cube.1 16",
		"mesh":1,
		"translation":[1.7087745666503907,
		-1.7946059703826905,
		5.108684539794922],
		"rotation":[0.743332028388977,
		-0.30844247341156008,
		0.4963782727718353,
		-0.3254678547382355],
		"scale":[1.0026519298553467,
		1.0026519298553467,
		1.0026519298553467]
	},
	{
		"name":"Cube 17",
		"mesh":2,
		"translation":[4.6968865394592289,
		-0.7190703749656677,
		4.994433879852295],
		"rotation":[-0.31670713424682619,
		-0.6183607578277588,
		0.5532334446907044,
		-0.4596295654773712],
		"scale":[1.4797731637954713,
		1.4797731637954713,
		1.4797731637954713]
	},
	{
		"name":"Cube.2 18",
		"mesh":0,
		"translation":[-4.798637390136719,
		1.8893218040466309,
		5.077420711517334],
		"rotation":[0.6083723902702332,
		0.057933975011110309,
		-0.0010622227564454079,
		0.7915337085723877],
		"scale":[1.1090723276138306,
		1.1090723276138306,
		1.1090723276138306]
	},
	{
		"name":"Cube.1 19",
		"mesh":1,
		"translation":[-2.522449493408203,
		1.848254919052124,
		5.16694450378418],
		"rotation":[0.06887982785701752,
		0.616660475730896,
		-0.011870711110532284,
		0.7841202020645142],
		"scale":[0.9164732098579407,
		0.9164732098579407,
		0.9164732098579407]
	},
	{
		"name":"Cube 20",
		"mesh":2,
		"translation":[-1.394885778427124,
		2.1329808235168459,
		4.51527214050293],
		"rotation":[0.11119097471237183,
		-0.46544012427330019,
		-0.1809391975402832,
		0.8592223525047302],
		"scale":[1.391854166984558,
		1.391854166984558,
		1.391854166984558]
	},
	{
		"name":"Cube.2 21",
		"mesh":0,
		"translation":[1.0727745294570923,
		1.8607162237167359,
		4.599170207977295],
		"rotation":[-0.38702455163002016,
		0.19262200593948365,
		0.28009533882141116,
		0.8571203947067261],
		"scale":[1.1664414405822755,
		1.1664414405822755,
		1.1664414405822755]
	},
	{
		"name":"Cube.1 22",
		"mesh":1,
		"translation":[3.269331216812134,
		1.372711420059204,
		4.71618127822876],
		"rotation":[0.023796940222382547,
		-0.4972076416015625,
		-0.007076294627040625,
		0.8672763109207153],
		"scale":[1.4428443908691407,
		1.4428443908691407,
		1.4428443908691407]
	},
	{
		"name":"Cube 23",
		"mesh":2,
		"translation":[5.421972274780273,
		2.0016767978668215,
		5.484127998352051],
		"rotation":[0.5963084697723389,
		-0.05937623605132103,
		-0.03743559494614601,
		-0.7996807098388672],
		"scale":[1.3609070777893067,
		1.3609070777893067,
		1.3609070777893067]
	},
	{
		"name":"Cube.2 24",
		"mesh":0,
		"translation":[-4.707599639892578,
		5.113722324371338,
		5.308910846710205],
		"rotation":[0.1759549230337143,
		-0.3116902709007263,
		-0.7503078579902649,
		0.5558121204376221],
		"scale":[1.2068198919296265,
		1.2068198919296265,
		1.2068198919296265]
	},
	{
		"name":"Cube.1 25",
		"mesh":1,
		"translation":[-2.7204272747039797,
		5.870760440826416,
		5.616697311401367],
		"rotation":[-0.30873993039131167,
		-0.6603654623031616,
		0.5332610607147217,
		-0.42921990156173708],
		"scale":[1.4601434469223023,
		1.4601434469223023,
		1.4601434469223023]
	},
	{
		"name":"Cube 26",
		"mesh":2,
		"translation":[-0.5021991729736328,
		4.838000774383545,
		4.988217353820801],
		"rotation":[0.5859178900718689,
		0.6763075590133667,
		-0.3115634620189667,
		0.3197444975376129],
		"scale":[0.7176737785339356,
		0.7176737785339356,
		0.7176737785339356]
	},
	{
		"name":"Cube.2 27",
		"mesh":0,
		"translation":[0.8675877451896668,
		6.137574195861816,
		5.883990287780762],
		"rotation":[0.2739759683609009,
		0.7193077802658081,
		-0.3267810642719269,
		0.5484046339988709],
		"scale":[1.474716067314148,
		1.474716067314148,
		1.474716067314148]
	},
	{
		"name":"Cube.1 28",
		"mesh":1,
		"translation":[3.3074960708618166,
		6.288295745849609,
		4.724268436431885],
		"rotation":[0.4570888876914978,
		-0.04561660811305046,
		-0.26673004031181338,
		0.8472567200660706],
		"scale":[0.969460129737854,
		0.969460129737854,
		0.969460129737854]
	},
	{
		"name":"Cube 29",
		"mesh":2,
		"translation":[4.246170520782471,
		5.253875255584717,
		4.145901203155518],
		"rotation":[0.4437042474746704,
		-0.24434207379817964,
		0.6968570947647095,
		-0.5077535510063171],
		"scale":[0.9003245234489441,
		0.9003245234489441,
		0.9003245234489441]
	},
	{
		"name":"Cube.2 30",
		"mesh":0,
		"translation":[-4.909727096557617,
		8.91350269317627,
		4.3985419273376469],
		"rotation":[0.3979475796222687,
		-0.520122766494751,
		0.7405149340629578,
		-0.15082332491874696],
		"scale":[1.135918140411377,
		1.135918140411377,
		1.135918140411377]
	},
	{
		"name":"Cube.1 31",
		"mesh":1,
		"translation":[-3.1990561485290529,
		8.676992416381836,
		5.380172252655029],
		"rotation":[0.391601026058197,
		-0.6437941193580627,
		0.5310465097427368,
		-0.38751429319381716],
		"scale":[0.6081786751747131,
		0.6081786751747131,
		0.6081786751747131]
	},
	{
		"name":"Cube 32",
		"mesh":2,
		"translation":[-0.5118135213851929,
		8.692795753479004,
		4.60045862197876],
		"rotation":[0.028553776443004609,
		0.8257893323898315,
		-0.5233259797096252,
		-0.20829443633556367],
		"scale":[0.5142090916633606,
		0.5142090916633606,
		0.5142090916633606]
	},
	{
		"name":"Cube.2 33",
		"mesh":0,
		"translation":[1.026354193687439,
		8.921024322509766,
		4.998777389526367],
		"rotation":[0.17495928704738618,
		0.6632401347160339,
		-0.7046278119087219,
		0.18166287243366242],
		"scale":[0.5090274810791016,
		0.5090274810791016,
		0.5090274810791016]
	},
	{
		"name":"Cube.1 34",
		"mesh":1,
		"translation":[3.5158276557922365,
		9.235323905944825,
		5.432276248931885],
		"rotation":[0.16054607927799226,
		0.8831571936607361,
		-0.3980216681957245,
		0.18930679559707642],
		"scale":[0.6525828242301941,
		0.6525828242301941,
		0.6525828242301941]
	},
	{
		"name":"Cube 35",
		"mesh":2,
		"translation":[5.047152996063232,
		9.322284698486329,
		4.8390889167785648],
		"rotation":[-0.06798601150512696,
		-0.551736056804657,
		0.8090192079544067,
		-0.1909271478652954],
		"scale":[1.1195000410079957,
		1.1195000410079957,
		1.1195000410079957]
	},
	{
		"name":"Cube.2 36",
		"mesh":0,
		"translation":[-5.918989658355713,
		-7.827417850494385,
		3.3441784381866457],
		"rotation":[0.4963970184326172,
		-0.7325547337532044,
		0.30661582946777346,
		-0.35062843561172488],
		"scale":[0.502549946308136,
		0.502549946308136,
		0.502549946308136]
	},
	{
		"name":"Cube.1 37",
		"mesh":1,
		"translation":[-2.8396599292755129,
		-7.647812366485596,
		3.7074403762817385],
		"rotation":[0.05427362397313118,
		-0.9368380308151245,
		0.3418465256690979,
		-0.05029778555035591],
		"scale":[0.5793445110321045,
		0.5793445110321045,
		0.5793445110321045]
	},
	{
		"name":"Cube 38",
		"mesh":2,
		"translation":[-1.8557206392288209,
		-8.354256629943848,
		2.745246410369873],
		"rotation":[0.7447969317436218,
		-0.41087284684181216,
		0.34440770745277407,
		-0.39729630947113039],
		"scale":[1.4888700246810914,
		1.4888700246810914,
		1.4888700246810914]
	},
	{
		"name":"Cube.2 39",
		"mesh":0,
		"translation":[0.5939649939537048,
		-8.071444511413575,
		2.162961721420288],
		"rotation":[0.28758782148361208,
		-0.13714204728603364,
		0.7077392339706421,
		-0.6305477619171143],
		"scale":[0.5724444389343262,
		0.5724444389343262,
		0.5724444389343262]
	},
	{
		"name":"Cube.1 40",
		"mesh":1,
		"translation":[2.5190188884735109,
		-8.048921585083008,
		3.254178047180176],
		"rotation":[0.41004306077957156,
		0.39826393127441409,
		0.02252519130706787,
		0.8202092051506043],
		"scale":[1.4902759790420533,
		1.4902759790420533,
		1.4902759790420533]
	},
	{
		"name":"Cube 41",
		"mesh":2,
		"translation":[5.5215229988098148,
		-7.749331474304199,
		3.300992250442505],
		"rotation":[0.5417614579200745,
		-0.07924169301986695,
		-0.6086881160736084,
		0.5742073059082031],
		"scale":[0.868166446685791,
		0.868166446685791,
		0.868166446685791]
	},
	{
		"name":"Cube.2 42",
		"mesh":0,
		"translation":[-5.2308783531188969,
		-4.980931758880615,
		3.915168046951294],
		"rotation":[0.22785021364688874,
		0.8527276515960693,
		-0.3567037582397461,
		0.3061082363128662],
		"scale":[1.2453386783599854,
		1.2453386783599854,
		1.2453386783599854]
	},
	{
		"name":"Cube.1 43",
		"mesh":1,
		"translation":[-2.485107660293579,
		-4.8132100105285648,
		1.9701199531555176],
		"rotation":[0.11525134742259979,
		0.010694574564695359,
		-0.8685793280601502,
		0.4818429946899414],
		"scale":[0.6976382732391357,
		0.6976382732391357,
		0.6976382732391357]
	},
	{
		"name":"Cube 44",
		"mesh":2,
		"translation":[-0.639983057975769,
		-4.507483005523682,
		3.0437469482421877],
		"rotation":[0.46865665912628176,
		-0.11838851869106293,
		-0.6558144688606262,
		0.5798727869987488],
		"scale":[1.0162357091903687,
		1.0162357091903687,
		1.0162357091903687]
	},
	{
		"name":"Cube.2 45",
		"mesh":0,
		"translation":[0.42864111065864565,
		-5.4179911613464359,
		4.0542683601379398],
		"rotation":[0.45372989773750307,
		0.7700076103210449,
		-0.018735723569989206,
		0.4481812119483948],
		"scale":[0.7869784235954285,
		0.7869784235954285,
		0.7869784235954285]
	},
	{
		"name":"Cube.1 46",
		"mesh":1,
		"translation":[3.0340347290039064,
		-4.28056001663208,
		3.998645305633545],
		"rotation":[0.26576441526412966,
		0.7323518991470337,
		-0.2681853473186493,
		0.5666626691818237],
		"scale":[0.8334223628044128,
		0.8334223628044128,
		0.8334223628044128]
	},
	{
		"name":"Cube 47",
		"mesh":2,
		"translation":[4.388522148132324,
		-4.415834903717041,
		2.958932638168335],
		"rotation":[0.03438178449869156,
		-0.5523127317428589,
		0.50968998670578,
		-0.6587751507759094],
		"scale":[1.4612963199615479,
		1.4612963199615479,
		1.4612963199615479]
	},
	{
		"name":"Cube.2 48",
		"mesh":0,
		"translation":[-4.684481620788574,
		-1.209130883216858,
		3.7433922290802],
		"rotation":[0.17724275588989259,
		0.8924939632415772,
		-0.4145447909832001,
		-0.013859756290912629],
		"scale":[0.6813120245933533,
		0.6813120245933533,
		0.6813120245933533]
	},
	{
		"name":"Cube.1 49",
		"mesh":1,
		"translation":[-2.8716976642608644,
		-0.7067595720291138,
		2.7649636268615724],
		"rotation":[0.19764114916324616,
		0.77019864320755,
		-0.5639621019363403,
		0.22288741171360017],
		"scale":[0.6844528913497925,
		0.6844528913497925,
		0.6844528913497925]
	},
	{
		"name":"Cube 50",
		"mesh":2,
		"translation":[-1.2445012331008912,
		-1.3891592025756837,
		2.849682569503784],
		"rotation":[0.08614344894886017,
		-0.5224047303199768,
		0.6138035655021668,
		-0.5855917930603027],
		"scale":[0.9440577030181885,
		0.9440577030181885,
		0.9440577030181885]
	},
	{
		"name":"Cube.2 51",
		"mesh":0,
		"translation":[1.5821770429611207,
		-1.2549761533737183,
		2.085902214050293],
		"rotation":[0.02291691303253174,
		-0.5426939725875855,
		0.8391679525375366,
		-0.027481628581881524],
		"scale":[1.0851187705993653,
		1.0851187705993653,
		1.0851187705993653]
	},
	{
		"name":"Cube.1 52",
		"mesh":1,
		"translation":[3.2535109519958498,
		-1.3256127834320069,
		2.311307191848755],
		"rotation":[-0.1890580803155899,
		-0.3067869544029236,
		0.7939167022705078,
		-0.4897296130657196],
		"scale":[0.6863864064216614,
		0.6863864064216614,
		0.6863864064216614]
	},
	{
		"name":"Cube 53",
		"mesh":2,
		"translation":[4.976031303405762,
		-0.9117527604103088,
		3.6869566440582277],
		"rotation":[-0.07938040792942047,
		-0.7116734981536865,
		0.25227195024490359,
		-0.6508290767669678],
		"scale":[0.8145890831947327,
		0.8145890831947327,
		0.8145890831947327]
	},
	{
		"name":"Cube.2 54",
		"mesh":0,
		"translation":[-4.985748767852783,
		1.3492627143859864,
		2.879565477371216],
		"rotation":[-0.28297537565231326,
		0.2579739987850189,
		-0.3936423063278198,
		-0.8357152938842773],
		"scale":[1.2721713781356812,
		1.2721713781356812,
		1.2721713781356812]
	},
	{
		"name":"Cube.1 55",
		"mesh":1,
		"translation":[-2.6381659507751467,
		2.0314152240753176,
		3.4544782638549806],
		"rotation":[-0.3035353124141693,
		0.4886913597583771,
		0.2483285516500473,
		0.7793458700180054],
		"scale":[1.3611106872558594,
		1.3611106872558594,
		1.3611106872558594]
	},
	{
		"name":"Cube 56",
		"mesh":2,
		"translation":[-0.6421327590942383,
		1.6894924640655518,
		2.7602193355560304],
		"rotation":[-0.3525392711162567,
		0.3747211694717407,
		-0.4377242922782898,
		-0.7373585104942322],
		"scale":[0.7980371117591858,
		0.7980371117591858,
		0.7980371117591858]
	},
	{
		"name":"Cube.2 57",
		"mesh":0,
		"translation":[0.9145802855491638,
		1.689626693725586,
		3.1197540760040285],
		"rotation":[0.3657943904399872,
		-0.23640623688697816,
		0.03019755706191063,
		0.8996636271476746],
		"scale":[1.0841494798660279,
		1.0841494798660279,
		1.0841494798660279]
	},
	{
		"name":"Cube.1 58",
		"mesh":1,
		"translation":[3.23984694480896,
		1.875470519065857,
		3.4579296112060549],
		"rotation":[-0.45963770151138308,
		-0.3432769775390625,
		-0.2392578125,
		0.7833580374717712],
		"scale":[1.215777039527893,
		1.215777039527893,
		1.215777039527893]
	},
	{
		"name":"Cube 59",
		"mesh":2,
		"translation":[5.0365753173828129,
		1.8010673522949219,
		2.9504449367523195],
		"rotation":[-0.4583609402179718,
		-0.14953194558620454,
		-0.21410854160785676,
		0.8495310544967651],
		"scale":[1.105073094367981,
		1.105073094367981,
		1.105073094367981]
	},
	{
		"name":"Cube.2 60",
		"mesh":0,
		"translation":[-4.214411735534668,
		5.654044151306152,
		3.3988733291625978],
		"rotation":[0.25169676542282107,
		0.8988745808601379,
		-0.3586844801902771,
		0.004319803323596716],
		"scale":[1.2107216119766236,
		1.2107216119766236,
		1.2107216119766236]
	},
	{
		"name":"Cube.1 61",
		"mesh":1,
		"translation":[-2.229011058807373,
		4.916110515594482,
		3.210585117340088],
		"rotation":[0.12022075802087784,
		-0.12222316116094589,
		-0.756310224533081,
		0.6313503384590149],
		"scale":[1.1731436252593995,
		1.1731436252593995,
		1.1731436252593995]
	},
	{
		"name":"Cube 62",
		"mesh":2,
		"translation":[-1.0723322629928589,
		6.1728739738464359,
		3.9210124015808107],
		"rotation":[0.48775383830070498,
		0.5478101968765259,
		-0.36952200531959536,
		0.5704854726791382],
		"scale":[1.2684310674667359,
		1.2684310674667359,
		1.2684310674667359]
	},
	{
		"name":"Cube.2 63",
		"mesh":0,
		"translation":[0.7077122926712036,
		5.251349449157715,
		3.185087203979492],
		"rotation":[0.5703147053718567,
		-0.7398044466972351,
		0.11731463670730591,
		-0.3371466100215912],
		"scale":[1.0925164222717286,
		1.0925164222717286,
		1.0925164222717286]
	},
	{
		"name":"Cube.1 64",
		"mesh":1,
		"translation":[2.6843461990356447,
		5.96787691116333,
		3.225034475326538],
		"rotation":[-0.257269948720932,
		-0.31888142228126528,
		0.347353458404541,
		-0.8434882164001465],
		"scale":[1.2741937637329102,
		1.2741937637329102,
		1.2741937637329102]
	},
	{
		"name":"Cube 65",
		"mesh":2,
		"translation":[5.465433597564697,
		5.432227611541748,
		3.5667340755462648],
		"rotation":[0.515999972820282,
		0.7982937693595886,
		-0.2778836488723755,
		0.13875070214271546],
		"scale":[1.122107744216919,
		1.122107744216919,
		1.122107744216919]
	},
	{
		"name":"Cube.2 66",
		"mesh":0,
		"translation":[-5.015269756317139,
		9.299555778503418,
		2.3294572830200197],
		"rotation":[-0.09815669804811478,
		-0.46316537261009219,
		0.6615827083587647,
		-0.5815078616142273],
		"scale":[0.8237984776496887,
		0.8237984776496887,
		0.8237984776496887]
	},
	{
		"name":"Cube.1 67",
		"mesh":1,
		"translation":[-3.1008458137512209,
		8.995681762695313,
		2.756716728210449],
		"rotation":[0.04763232544064522,
		-0.8150417804718018,
		0.5759021639823914,
		-0.042127322405576709],
		"scale":[1.3207451105117798,
		1.3207451105117798,
		1.3207451105117798]
	},
	{
		"name":"Cube 68",
		"mesh":2,
		"translation":[-1.227052927017212,
		9.282052993774414,
		3.2762820720672609],
		"rotation":[0.6096487045288086,
		0.5100734829902649,
		-0.30791953206062319,
		0.522818386554718],
		"scale":[0.5549052357673645,
		0.5549052357673645,
		0.5549052357673645]
	},
	{
		"name":"Cube.2 69",
		"mesh":0,
		"translation":[0.7529267072677612,
		9.069106101989746,
		3.7601943016052248],
		"rotation":[0.6169188618659973,
		0.5480865836143494,
		-0.10312998294830322,
		0.5553164482116699],
		"scale":[0.9799326062202454,
		0.9799326062202454,
		0.9799326062202454]
	},
	{
		"name":"Cube.1 70",
		"mesh":1,
		"translation":[2.470600128173828,
		9.607885360717774,
		2.8500144481658937],
		"rotation":[-0.41521263122558596,
		-0.23356585204601289,
		0.1390053629875183,
		-0.8681721687316895],
		"scale":[0.6110771298408508,
		0.6110771298408508,
		0.6110771298408508]
	},
	{
		"name":"Cube 71",
		"mesh":2,
		"translation":[5.926560878753662,
		8.341254234313965,
		3.4606854915618898],
		"rotation":[0.32950422167778017,
		0.8724565505981445,
		-0.3591803014278412,
		-0.03515804558992386],
		"scale":[0.9408645033836365,
		0.9408645033836365,
		0.9408645033836365]
	},
	{
		"name":"Cube.2 72",
		"mesh":0,
		"translation":[-5.520641803741455,
		-8.028553009033204,
		1.1703993082046509],
		"rotation":[0.1971009522676468,
		-0.8230740427970886,
		0.4130975604057312,
		-0.3362301290035248],
		"scale":[1.2001408338546754,
		1.2001408338546754,
		1.2001408338546754]
	},
	{
		"name":"Cube.1 73",
		"mesh":1,
		"translation":[-2.7935609817504885,
		-7.910144805908203,
		1.3956891298294068],
		"rotation":[0.47196298837661745,
		0.8080759644508362,
		-0.09032735228538513,
		0.3407420516014099],
		"scale":[0.6059868931770325,
		0.6059868931770325,
		0.6059868931770325]
	},
	{
		"name":"Cube 74",
		"mesh":2,
		"translation":[-0.7672855854034424,
		-8.14151668548584,
		0.608450174331665],
		"rotation":[-0.09034767001867295,
		-0.6874856948852539,
		0.6358039379119873,
		-0.3390487730503082],
		"scale":[1.4800323247909547,
		1.4800323247909547,
		1.4800323247909547]
	},
	{
		"name":"Cube.2 75",
		"mesh":0,
		"translation":[0.7075210213661194,
		-8.525130271911621,
		1.5400327444076539],
		"rotation":[0.42069530487060549,
		0.3463786542415619,
		0.17990656197071076,
		0.8189449906349182],
		"scale":[0.7034596800804138,
		0.7034596800804138,
		0.7034596800804138]
	},
	{
		"name":"Cube.1 76",
		"mesh":1,
		"translation":[2.443567991256714,
		-8.51557445526123,
		1.0714877843856812],
		"rotation":[0.4184407591819763,
		0.1926496922969818,
		0.2158065289258957,
		0.8609418869018555],
		"scale":[1.0736392736434937,
		1.0736392736434937,
		1.0736392736434937]
	},
	{
		"name":"Cube 77",
		"mesh":2,
		"translation":[5.691082000732422,
		-7.992029190063477,
		1.5254204273223878],
		"rotation":[0.1620478332042694,
		0.874783456325531,
		-0.3765478730201721,
		0.25827524065971377],
		"scale":[1.2202885150909424,
		1.2202885150909424,
		1.2202885150909424]
	},
	{
		"name":"Cube.2 78",
		"mesh":0,
		"translation":[-5.180746078491211,
		-4.651272773742676,
		0.46167343854904177],
		"rotation":[0.033003538846969607,
		-0.5849472880363464,
		0.7846345901489258,
		-0.20272144675254823],
		"scale":[0.754390299320221,
		0.754390299320221,
		0.754390299320221]
	},
	{
		"name":"Cube.1 79",
		"mesh":1,
		"translation":[-2.2426929473876955,
		-4.156803607940674,
		0.8012539148330689],
		"rotation":[0.004138363525271416,
		-0.7812040448188782,
		0.6149221062660217,
		-0.10758237540721894],
		"scale":[1.2616961002349854,
		1.2616961002349854,
		1.2616961002349854]
	},
	{
		"name":"Cube 80",
		"mesh":2,
		"translation":[-1.6763105392456055,
		-4.956405162811279,
		1.7532020807266236],
		"rotation":[0.42178425192832949,
		0.5826985836029053,
		-0.09009331464767456,
		0.6887986660003662],
		"scale":[0.6314470171928406,
		0.6314470171928406,
		0.6314470171928406]
	},
	{
		"name":"Cube.2 81",
		"mesh":0,
		"translation":[0.7829806208610535,
		-4.977401256561279,
		1.8614633083343506],
		"rotation":[0.5655427575111389,
		0.5853473544120789,
		-0.06295904517173767,
		0.5775517821311951],
		"scale":[0.7954723238945007,
		0.7954723238945007,
		0.7954723238945007]
	},
	{
		"name":"Cube.1 82",
		"mesh":1,
		"translation":[3.158787250518799,
		-4.515478610992432,
		0.9786046743392944],
		"rotation":[0.3093651235103607,
		0.07724171876907349,
		-0.3395979702472687,
		0.8848729729652405],
		"scale":[0.8723410367965698,
		0.8723410367965698,
		0.8723410367965698]
	},
	{
		"name":"Cube 83",
		"mesh":2,
		"translation":[4.269242763519287,
		-4.033988952636719,
		0.8918130993843079],
		"rotation":[0.5183722972869873,
		-0.7272509932518005,
		0.3979116380214691,
		-0.20991067588329316],
		"scale":[1.1755915880203248,
		1.1755915880203248,
		1.1755915880203248]
	},
	{
		"name":"Cube.2 84",
		"mesh":0,
		"translation":[-4.491570472717285,
		-1.219606637954712,
		0.8262306451797485],
		"rotation":[-0.007256434299051762,
		-0.35986828804016116,
		0.9141992330551148,
		-0.18623073399066926],
		"scale":[1.0067574977874756,
		1.0067574977874756,
		1.0067574977874756]
	},
	{
		"name":"Cube.1 85",
		"mesh":1,
		"translation":[-2.6427361965179445,
		-0.9500441551208496,
		1.5969696044921876],
		"rotation":[-0.3312424123287201,
		-0.5988280773162842,
		0.5831284523010254,
		-0.43777230381965639],
		"scale":[0.8843045830726624,
		0.8843045830726624,
		0.8843045830726624]
	},
	{
		"name":"Cube 86",
		"mesh":2,
		"translation":[-0.9320133924484253,
		-1.121131420135498,
		0.15639325976371766],
		"rotation":[0.04165805131196976,
		-0.0784493237733841,
		0.8963792324066162,
		-0.4342978298664093],
		"scale":[0.5329005718231201,
		0.5329005718231201,
		0.5329005718231201]
	},
	{
		"name":"Cube.2 87",
		"mesh":0,
		"translation":[1.3102014064788819,
		-1.3191159963607789,
		0.9229706525802612],
		"rotation":[0.1735459864139557,
		0.7734998464584351,
		-0.5950997471809387,
		-0.13204564154148103],
		"scale":[0.9612115621566773,
		0.9612115621566773,
		0.9612115621566773]
	},
	{
		"name":"Cube.1 88",
		"mesh":1,
		"translation":[2.6849822998046877,
		-1.1856812238693238,
		1.0271590948104859],
		"rotation":[-0.30283090472221377,
		-0.49204808473587038,
		0.580306351184845,
		-0.5739570260047913],
		"scale":[1.272484540939331,
		1.272484540939331,
		1.272484540939331]
	},
	{
		"name":"Cube 89",
		"mesh":2,
		"translation":[5.691274166107178,
		-0.8277817368507385,
		0.4586101770401001],
		"rotation":[-0.016516566276550294,
		-0.6103346943855286,
		0.7732595801353455,
		-0.1711386889219284],
		"scale":[0.9764947295188904,
		0.9764947295188904,
		0.9764947295188904]
	},
	{
		"name":"Cube.2 90",
		"mesh":0,
		"translation":[-5.379004001617432,
		1.8236550092697144,
		1.3058222532272339],
		"rotation":[0.29448261857032778,
		-0.4114508032798767,
		0.01701773889362812,
		-0.8623796105384827],
		"scale":[1.066882848739624,
		1.066882848739624,
		1.066882848739624]
	},
	{
		"name":"Cube.1 91",
		"mesh":1,
		"translation":[-2.6897764205932619,
		2.0338475704193117,
		1.487318992614746],
		"rotation":[0.34621188044548037,
		0.4842134416103363,
		0.13661417365074159,
		-0.7918404340744019],
		"scale":[1.028534173965454,
		1.028534173965454,
		1.028534173965454]
	},
	{
		"name":"Cube 92",
		"mesh":2,
		"translation":[-0.7949395179748535,
		1.8017992973327637,
		1.3614829778671265],
		"rotation":[0.15308167040348054,
		0.524715781211853,
		0.05817725881934166,
		-0.835377037525177],
		"scale":[1.350319504737854,
		1.350319504737854,
		1.350319504737854]
	},
	{
		"name":"Cube.2 93",
		"mesh":0,
		"translation":[1.4360527992248536,
		1.8373550176620484,
		1.4250317811965943],
		"rotation":[0.1626879870891571,
		-0.6861831545829773,
		0.050239138305187228,
		-0.7072208523750305],
		"scale":[0.9785535931587219,
		0.9785535931587219,
		0.9785535931587219]
	},
	{
		"name":"Cube.1 94",
		"mesh":1,
		"translation":[3.2019777297973635,
		1.445494532585144,
		0.6129833459854126],
		"rotation":[0.5308542251586914,
		-0.47853124141693118,
		-0.11750882118940354,
		-0.6894876956939697],
		"scale":[1.2512304782867432,
		1.2512304782867432,
		1.2512304782867432]
	},
	{
		"name":"Cube 95",
		"mesh":2,
		"translation":[4.6651835441589359,
		1.9735814332962037,
		1.2605700492858887],
		"rotation":[0.0600988008081913,
		0.581740140914917,
		-0.4072500169277191,
		-0.7015083432197571],
		"scale":[0.8517393469810486,
		0.8517393469810486,
		0.8517393469810486]
	},
	{
		"name":"Cube.2 96",
		"mesh":0,
		"translation":[-5.175228595733643,
		5.985047340393066,
		1.9483946561813355],
		"rotation":[0.2877207100391388,
		0.8022546768188477,
		-0.39978262782096865,
		0.3373100459575653],
		"scale":[0.5350235104560852,
		0.5350235104560852,
		0.5350235104560852]
	},
	{
		"name":"Cube.1 97",
		"mesh":1,
		"translation":[-2.557023048400879,
		5.371670722961426,
		0.41134071350097659],
		"rotation":[0.032156821340322497,
		-0.7147637605667114,
		0.6637861728668213,
		-0.21786843240261079],
		"scale":[0.9104486107826233,
		0.9104486107826233,
		0.9104486107826233]
	},
	{
		"name":"Cube 98",
		"mesh":2,
		"translation":[-0.21330329775810243,
		5.214454174041748,
		1.0300869941711426],
		"rotation":[0.16394546627998353,
		0.8692671060562134,
		-0.40788814425468447,
		0.22610591351985932],
		"scale":[1.285455584526062,
		1.285455584526062,
		1.285455584526062]
	},
	{
		"name":"Cube.2 99",
		"mesh":0,
		"translation":[1.7656322717666627,
		6.0135369300842289,
		0.9813409447669983],
		"rotation":[0.4432617425918579,
		-0.15498514473438264,
		-0.48272213339805605,
		0.7392414808273315],
		"scale":[1.215667963027954,
		1.215667963027954,
		1.215667963027954]
	},
	{
		"name":"Cube.1 100",
		"mesh":1,
		"translation":[3.2044432163238527,
		5.144403457641602,
		0.5984777808189392],
		"rotation":[0.31687065958976748,
		-0.6411876678466797,
		0.6308103799819946,
		-0.3009146749973297],
		"scale":[1.1027038097381592,
		1.1027038097381592,
		1.1027038097381592]
	},
	{
		"name":"Cube 101",
		"mesh":2,
		"translation":[4.846554756164551,
		5.69422721862793,
		0.7883012294769287],
		"rotation":[0.47742316126823428,
		-0.6607136726379395,
		0.3512248694896698,
		-0.4606144428253174],
		"scale":[1.4128063917160035,
		1.4128063917160035,
		1.4128063917160035]
	},
	{
		"name":"Cube.2 102",
		"mesh":0,
		"translation":[-4.444353103637695,
		9.188810348510743,
		1.1675670146942139],
		"rotation":[-0.18704958260059358,
		-0.7007147073745728,
		0.58510822057724,
		-0.3628494143486023],
		"scale":[1.1489392518997193,
		1.1489392518997193,
		1.1489392518997193]
	},
	{
		"name":"Cube.1 103",
		"mesh":1,
		"translation":[-2.6212847232818605,
		9.102516174316407,
		1.8968192338943482],
		"rotation":[0.2625884711742401,
		0.9291169047355652,
		-0.18010464310646058,
		0.18801966309547425],
		"scale":[0.8822043538093567,
		0.8822043538093567,
		0.8822043538093567]
	},
	{
		"name":"Cube 104",
		"mesh":2,
		"translation":[-1.086351990699768,
		8.646443367004395,
		1.2683658599853516],
		"rotation":[0.586239218711853,
		0.4280393421649933,
		0.09643106907606125,
		0.681033730506897],
		"scale":[0.9718247652053833,
		0.9718247652053833,
		0.9718247652053833]
	},
	{
		"name":"Cube.2 105",
		"mesh":0,
		"translation":[0.9112149477005005,
		8.944053649902344,
		1.8669487237930298],
		"rotation":[0.5965122580528259,
		0.40603184700012209,
		-0.18764469027519227,
		0.6664088368415833],
		"scale":[1.1584111452102662,
		1.1584111452102662,
		1.1584111452102662]
	},
	{
		"name":"Cube.1 106",
		"mesh":1,
		"translation":[3.09281063079834,
		8.810019493103028,
		1.3659582138061524],
		"rotation":[0.4021197259426117,
		0.07521937042474747,
		-0.6403303146362305,
		0.6500914692878723],
		"scale":[1.0578408241271973,
		1.0578408241271973,
		1.0578408241271973]
	},
	{
		"name":"Cube 107",
		"mesh":2,
		"translation":[5.79100227355957,
		8.520085334777832,
		0.06783042103052139],
		"rotation":[0.05547352880239487,
		-0.04240911081433296,
		-0.7583160996437073,
		0.6481364965438843],
		"scale":[0.5203295946121216,
		0.5203295946121216,
		0.5203295946121216]
	},
	{
		"name":"Cube.2 108",
		"mesh":0,
		"translation":[-4.248546600341797,
		-7.968515872955322,
		-0.9719635844230652],
		"rotation":[0.272438645362854,
		0.9058316349983215,
		-0.2984822690486908,
		0.12710052728652955],
		"scale":[0.8857024908065796,
		0.8857024908065796,
		0.8857024908065796]
	},
	{
		"name":"Cube.1 109",
		"mesh":1,
		"translation":[-2.6306707859039308,
		-8.134546279907227,
		-1.4842320680618287],
		"rotation":[0.30813485383987429,
		-0.151619091629982,
		-0.5003083348274231,
		0.794830858707428],
		"scale":[0.7617509961128235,
		0.7617509961128235,
		0.7617509961128235]
	},
	{
		"name":"Cube 110",
		"mesh":2,
		"translation":[-1.8789892196655274,
		-8.235918045043946,
		-0.7540077567100525],
		"rotation":[0.4712636470794678,
		-0.6957756876945496,
		0.49441033601760867,
		-0.22218270599842072],
		"scale":[1.2403663396835328,
		1.2403663396835328,
		1.2403663396835328]
	},
	{
		"name":"Cube.2 111",
		"mesh":0,
		"translation":[1.3920540809631348,
		-8.222187042236329,
		-1.285224437713623],
		"rotation":[0.23833397030830384,
		-0.5579409003257752,
		0.7924448847770691,
		-0.06268930435180664],
		"scale":[1.243597149848938,
		1.243597149848938,
		1.243597149848938]
	},
	{
		"name":"Cube.1 112",
		"mesh":1,
		"translation":[2.7806174755096437,
		-8.413493156433106,
		-1.3808072805404664],
		"rotation":[-0.2530207931995392,
		-0.19398069381713868,
		0.19912904500961305,
		-0.9266604781150818],
		"scale":[1.085234522819519,
		1.085234522819519,
		1.085234522819519]
	},
	{
		"name":"Cube 113",
		"mesh":2,
		"translation":[4.638786792755127,
		-7.4766526222229,
		-1.570859432220459],
		"rotation":[0.19696635007858277,
		-0.5043320059776306,
		0.5568539500236511,
		-0.6298945546150208],
		"scale":[1.2803606986999512,
		1.2803606986999512,
		1.2803606986999512]
	},
	{
		"name":"Cube.2 114",
		"mesh":0,
		"translation":[-5.144181728363037,
		-4.665102481842041,
		-2.037269353866577],
		"rotation":[0.023760218173265458,
		-0.06890310347080231,
		0.9019590616226196,
		-0.42562615871429446],
		"scale":[0.7491468787193298,
		0.7491468787193298,
		0.7491468787193298]
	},
	{
		"name":"Cube.1 115",
		"mesh":1,
		"translation":[-3.338709592819214,
		-5.223665714263916,
		-1.7349168062210084],
		"rotation":[0.19814833998680116,
		-0.14904487133026124,
		0.6652514338493347,
		-0.7042466998100281],
		"scale":[0.5987805128097534,
		0.5987805128097534,
		0.5987805128097534]
	},
	{
		"name":"Cube 116",
		"mesh":2,
		"translation":[-0.10561621934175492,
		-4.822399139404297,
		-1.5446523427963257],
		"rotation":[0.21222659945487977,
		0.6536021828651428,
		-0.7249599099159241,
		0.04687457159161568],
		"scale":[0.9406140446662903,
		0.9406140446662903,
		0.9406140446662903]
	},
	{
		"name":"Cube.2 117",
		"mesh":0,
		"translation":[1.0117827653884888,
		-4.881711006164551,
		-0.3950401842594147],
		"rotation":[0.5226426720619202,
		0.4554729461669922,
		-0.3462167978286743,
		0.6320782899856567],
		"scale":[0.901711106300354,
		0.901711106300354,
		0.901711106300354]
	},
	{
		"name":"Cube.1 118",
		"mesh":1,
		"translation":[2.5498499870300295,
		-4.332071304321289,
		-0.1916903406381607],
		"rotation":[-0.07995046675205231,
		-0.8288325667381287,
		0.45141199231147768,
		-0.32073622941970827],
		"scale":[0.5294752717018127,
		0.5294752717018127,
		0.5294752717018127]
	},
	{
		"name":"Cube 119",
		"mesh":2,
		"translation":[4.7189178466796879,
		-4.875007152557373,
		-0.6029507517814636],
		"rotation":[0.4872065484523773,
		-0.6327760815620422,
		0.4789411723613739,
		-0.3644716143608093],
		"scale":[1.3494422435760499,
		1.3494422435760499,
		1.3494422435760499]
	},
	{
		"name":"Cube.2 120",
		"mesh":0,
		"translation":[-4.945175647735596,
		-0.6132272481918335,
		-1.3209680318832398],
		"rotation":[-0.42471444606781008,
		-0.12529055774211884,
		0.13251708447933198,
		-0.8867689371109009],
		"scale":[0.510777473449707,
		0.510777473449707,
		0.510777473449707]
	},
	{
		"name":"Cube.1 121",
		"mesh":1,
		"translation":[-3.0808019638061525,
		-0.7954738140106201,
		-1.937878131866455],
		"rotation":[-0.04427873715758324,
		-0.21883980929851533,
		0.6355996131896973,
		-0.7390275001525879],
		"scale":[0.9093959331512451,
		0.9093959331512451,
		0.9093959331512451]
	},
	{
		"name":"Cube 122",
		"mesh":2,
		"translation":[-1.343818187713623,
		-1.7465927600860596,
		-1.632761001586914],
		"rotation":[0.6633036136627197,
		-0.3405810296535492,
		0.5573568344116211,
		-0.365220844745636],
		"scale":[1.4621531963348389,
		1.4621531963348389,
		1.4621531963348389]
	},
	{
		"name":"Cube.2 123",
		"mesh":0,
		"translation":[1.3955605030059815,
		-1.8451025485992432,
		-1.2724062204360963],
		"rotation":[0.12767328321933747,
		-0.02768481895327568,
		-0.8999187350273132,
		0.41602805256843569],
		"scale":[0.8981756567955017,
		0.8981756567955017,
		0.8981756567955017]
	},
	{
		"name":"Cube.1 124",
		"mesh":1,
		"translation":[2.6329054832458498,
		-1.0185978412628174,
		-1.5373947620391846],
		"rotation":[0.30191078782081606,
		-0.17408080399036408,
		0.7835449576377869,
		-0.5143958330154419],
		"scale":[1.4993377923965455,
		1.4993377923965455,
		1.4993377923965455]
	},
	{
		"name":"Cube 125",
		"mesh":2,
		"translation":[4.858560562133789,
		-1.5550317764282227,
		-1.8902075290679932],
		"rotation":[-0.02114342898130417,
		-0.05759516730904579,
		0.9039710760116577,
		-0.42316901683807375],
		"scale":[0.5223649144172669,
		0.5223649144172669,
		0.5223649144172669]
	},
	{
		"name":"Cube.2 126",
		"mesh":0,
		"translation":[-5.049097061157227,
		1.79228675365448,
		-0.7738935351371765],
		"rotation":[-0.3913927674293518,
		-0.028065228834748269,
		-0.040235064923763278,
		0.9189152121543884],
		"scale":[0.5996972322463989,
		0.5996972322463989,
		0.5996972322463989]
	},
	{
		"name":"Cube.1 127",
		"mesh":1,
		"translation":[-3.138732671737671,
		1.8341779708862305,
		-0.6864547729492188],
		"rotation":[-0.43942975997924807,
		0.12323898077011109,
		-0.08733166009187699,
		-0.8854867815971375],
		"scale":[0.6912673115730286,
		0.6912673115730286,
		0.6912673115730286]
	},
	{
		"name":"Cube 128",
		"mesh":2,
		"translation":[-1.3767695426940919,
		1.4684139490127564,
		-1.0821560621261597],
		"rotation":[0.42020052671432497,
		0.2878214716911316,
		0.18633180856704713,
		0.840161144733429],
		"scale":[0.5757508277893066,
		0.5757508277893066,
		0.5757508277893066]
	},
	{
		"name":"Cube.2 129",
		"mesh":0,
		"translation":[1.3711060285568238,
		1.9136942625045777,
		-1.1235743761062623],
		"rotation":[0.49443015456199648,
		-0.4791455566883087,
		0.06261718273162842,
		0.7225216031074524],
		"scale":[0.7009543180465698,
		0.7009543180465698,
		0.7009543180465698]
	},
	{
		"name":"Cube.1 130",
		"mesh":1,
		"translation":[2.7183330059051515,
		2.182523250579834,
		-0.9589197039604187],
		"rotation":[0.35807907581329348,
		0.39699310064315798,
		0.06141248717904091,
		0.8428548574447632],
		"scale":[1.3146538734436036,
		1.3146538734436036,
		1.3146538734436036]
	},
	{
		"name":"Cube 131",
		"mesh":2,
		"translation":[5.2661967277526859,
		1.616410255432129,
		-0.5432571768760681],
		"rotation":[-0.05439789965748787,
		0.4992468059062958,
		-0.1770971268415451,
		-0.8464219570159912],
		"scale":[1.449532389640808,
		1.449532389640808,
		1.449532389640808]
	},
	{
		"name":"Cube.2 132",
		"mesh":0,
		"translation":[-5.132382869720459,
		5.477093696594238,
		-0.6136438250541687],
		"rotation":[0.555625319480896,
		0.7347804307937622,
		-0.050704482942819598,
		0.38575541973114016],
		"scale":[0.5304673314094544,
		0.5304673314094544,
		0.5304673314094544]
	},
	{
		"name":"Cube.1 133",
		"mesh":1,
		"translation":[-2.939786434173584,
		5.607412815093994,
		-1.2217451333999634],
		"rotation":[0.03183327242732048,
		-0.2458498328924179,
		0.3280326724052429,
		-0.9115585684776306],
		"scale":[0.5134639143943787,
		0.5134639143943787,
		0.5134639143943787]
	},
	{
		"name":"Cube 134",
		"mesh":2,
		"translation":[-1.5458184480667115,
		5.659064769744873,
		-0.34898850321769717],
		"rotation":[0.22458399832248689,
		0.6059738397598267,
		-0.05180526152253151,
		0.7613632082939148],
		"scale":[0.5787749290466309,
		0.5787749290466309,
		0.5787749290466309]
	},
	{
		"name":"Cube.2 135",
		"mesh":0,
		"translation":[0.8955925703048706,
		5.3740315437316898,
		-1.2867285013198853],
		"rotation":[0.3749673068523407,
		-0.45974019169807436,
		0.7310944199562073,
		-0.3369561731815338],
		"scale":[0.5690715312957764,
		0.5690715312957764,
		0.5690715312957764]
	},
	{
		"name":"Cube.1 136",
		"mesh":1,
		"translation":[2.2268905639648439,
		4.900578498840332,
		-1.2853533029556275],
		"rotation":[0.48864835500717165,
		0.11628653109073639,
		0.2366541177034378,
		0.8316820859909058],
		"scale":[1.2328180074691773,
		1.2328180074691773,
		1.2328180074691773]
	},
	{
		"name":"Cube 137",
		"mesh":2,
		"translation":[4.410264492034912,
		6.004237651824951,
		-0.8217625021934509],
		"rotation":[-0.061557184904813769,
		-0.32209140062332156,
		0.253426194190979,
		-0.9100785851478577],
		"scale":[1.1570309400558472,
		1.1570309400558472,
		1.1570309400558472]
	},
	{
		"name":"Cube.2 138",
		"mesh":0,
		"translation":[-5.321293830871582,
		8.996671676635743,
		-1.65193510055542],
		"rotation":[0.06814739853143692,
		-0.20129376649856568,
		0.4584524631500244,
		-0.8629357218742371],
		"scale":[1.0918012857437134,
		1.0918012857437134,
		1.0918012857437134]
	},
	{
		"name":"Cube.1 139",
		"mesh":1,
		"translation":[-3.3930585384368898,
		9.48674488067627,
		-0.9189093708992004],
		"rotation":[0.36423739790916445,
		-0.784210741519928,
		0.278641939163208,
		-0.41797518730163576],
		"scale":[0.535699188709259,
		0.535699188709259,
		0.535699188709259]
	},
	{
		"name":"Cube 140",
		"mesh":2,
		"translation":[-1.0984729528427125,
		9.221858978271485,
		-1.5658196210861207],
		"rotation":[0.3873727023601532,
		-0.31422775983810427,
		0.734838604927063,
		-0.4595819413661957],
		"scale":[0.8603842854499817,
		0.8603842854499817,
		0.8603842854499817]
	},
	{
		"name":"Cube.2 141",
		"mesh":0,
		"translation":[1.259459376335144,
		9.539411544799805,
		-1.903907060623169],
		"rotation":[0.09435469657182694,
		-0.0041119311936199669,
		-0.49751925468444826,
		0.8622962832450867],
		"scale":[1.2265514135360718,
		1.2265514135360718,
		1.2265514135360718]
	},
	{
		"name":"Cube.1 142",
		"mesh":1,
		"translation":[2.1467807292938234,
		9.104680061340332,
		-0.362662672996521],
		"rotation":[0.3938024342060089,
		-0.719429612159729,
		0.3009862005710602,
		-0.48656752705574038],
		"scale":[1.4786064624786378,
		1.4786064624786378,
		1.4786064624786378]
	},
	{
		"name":"Cube 143",
		"mesh":2,
		"translation":[5.261847972869873,
		9.280025482177735,
		-1.3599070310592652],
		"rotation":[0.3890021741390228,
		0.18255287408828736,
		-0.6015431880950928,
		0.6734222769737244],
		"scale":[0.6967945694923401,
		0.6967945694923401,
		0.6967945694923401]
	},
	{
		"name":"Cube.2 144",
		"mesh":0,
		"translation":[-4.257343769073486,
		-7.946125507354736,
		-3.1692519187927248],
		"rotation":[0.2015395164489746,
		-0.15512822568416596,
		-0.5489640831947327,
		0.7962132096290588],
		"scale":[1.3686023950576783,
		1.3686023950576783,
		1.3686023950576783]
	},
	{
		"name":"Cube.1 145",
		"mesh":1,
		"translation":[-3.0244483947753908,
		-7.978153705596924,
		-3.183838367462158],
		"rotation":[-0.12986452877521516,
		-0.4665411412715912,
		0.8409141898155212,
		-0.2415323555469513],
		"scale":[1.325397253036499,
		1.325397253036499,
		1.325397253036499]
	},
	{
		"name":"Cube 146",
		"mesh":2,
		"translation":[-1.6281325817108155,
		-8.405234336853028,
		-3.0017752647399904],
		"rotation":[0.015593300573527813,
		-0.33674001693725588,
		0.5020536780357361,
		-0.7964327335357666],
		"scale":[1.2734500169754029,
		1.2734500169754029,
		1.2734500169754029]
	},
	{
		"name":"Cube.2 147",
		"mesh":0,
		"translation":[0.09211578965187073,
		-7.950748443603516,
		-2.9126644134521486],
		"rotation":[0.4814109802246094,
		0.37818172574043276,
		0.061806388199329379,
		0.7882905602455139],
		"scale":[1.2343239784240723,
		1.2343239784240723,
		1.2343239784240723]
	},
	{
		"name":"Cube.1 148",
		"mesh":1,
		"translation":[2.8829314708709719,
		-7.562164306640625,
		-2.886868715286255],
		"rotation":[0.362000435590744,
		0.22410117089748383,
		-0.5347470641136169,
		0.7299177646636963],
		"scale":[0.6693522930145264,
		0.6693522930145264,
		0.6693522930145264]
	},
	{
		"name":"Cube 149",
		"mesh":2,
		"translation":[4.706844329833984,
		-8.031007766723633,
		-2.7231457233428957],
		"rotation":[0.4121861457824707,
		-0.6526148319244385,
		0.48980218172073367,
		-0.40532734990119936],
		"scale":[0.6116816401481628,
		0.6116816401481628,
		0.6116816401481628]
	},
	{
		"name":"Cube.2 150",
		"mesh":0,
		"translation":[-5.322910785675049,
		-5.147615432739258,
		-3.664395332336426],
		"rotation":[0.056471895426511767,
		-0.07643220573663712,
		0.7410707473754883,
		-0.6646677255630493],
		"scale":[0.9100889563560486,
		0.9100889563560486,
		0.9100889563560486]
	},
	{
		"name":"Cube.1 151",
		"mesh":1,
		"translation":[-3.3762283325195314,
		-4.92332124710083,
		-2.3755695819854738],
		"rotation":[0.4535444378852844,
		0.6120501160621643,
		0.037235744297504428,
		0.6467655301094055],
		"scale":[0.6827852129936218,
		0.6827852129936218,
		0.6827852129936218]
	},
	{
		"name":"Cube 152",
		"mesh":2,
		"translation":[-0.6668533086776733,
		-3.9039535522460939,
		-3.1247477531433107],
		"rotation":[0.21435710787773133,
		0.4806797504425049,
		-0.7917393445968628,
		0.31007546186447146],
		"scale":[1.487281084060669,
		1.487281084060669,
		1.487281084060669]
	},
	{
		"name":"Cube.2 153",
		"mesh":0,
		"translation":[1.3881062269210816,
		-4.961062908172607,
		-2.7890806198120119],
		"rotation":[0.16593727469444276,
		0.7471199035644531,
		-0.6418623328208923,
		-0.047847677022218707],
		"scale":[1.3738198280334473,
		1.3738198280334473,
		1.3738198280334473]
	},
	{
		"name":"Cube.1 154",
		"mesh":1,
		"translation":[3.7443673610687258,
		-4.943592548370361,
		-2.0818467140197756],
		"rotation":[0.712112545967102,
		-0.030956633388996125,
		-0.5332517623901367,
		0.4556094706058502],
		"scale":[1.4365004301071168,
		1.4365004301071168,
		1.4365004301071168]
	},
	{
		"name":"Cube 155",
		"mesh":2,
		"translation":[5.022732734680176,
		-4.300699710845947,
		-3.001528024673462],
		"rotation":[-0.28631454706192019,
		-0.5012512803077698,
		0.3022405505180359,
		-0.7585656046867371],
		"scale":[0.835823655128479,
		0.835823655128479,
		0.835823655128479]
	},
	{
		"name":"Cube.2 156",
		"mesh":0,
		"translation":[-6.1785407066345219,
		-1.8666273355484009,
		-3.2612619400024416],
		"rotation":[0.7423508763313294,
		-0.3303280472755432,
		0.5466416478157044,
		-0.20243875682353974],
		"scale":[1.3626104593276978,
		1.3626104593276978,
		1.3626104593276978]
	},
	{
		"name":"Cube.1 157",
		"mesh":1,
		"translation":[-2.675370693206787,
		-1.8574671745300294,
		-3.69646954536438],
		"rotation":[0.3265383839607239,
		-0.017514342442154886,
		-0.8842520713806152,
		0.3334129750728607],
		"scale":[1.2291382551193238,
		1.2291382551193238,
		1.2291382551193238]
	},
	{
		"name":"Cube 158",
		"mesh":2,
		"translation":[-0.9207502603530884,
		-1.4226757287979127,
		-2.967012882232666],
		"rotation":[0.13711903989315034,
		0.4990326166152954,
		-0.8535923957824707,
		0.05953855812549591],
		"scale":[1.1729621887207032,
		1.1729621887207032,
		1.1729621887207032]
	},
	{
		"name":"Cube.2 159",
		"mesh":0,
		"translation":[1.6085957288742066,
		-1.295392394065857,
		-3.12724232673645],
		"rotation":[0.529908299446106,
		0.19443686306476594,
		-0.7400482892990112,
		0.36567753553390505],
		"scale":[1.385270357131958,
		1.385270357131958,
		1.385270357131958]
	},
	{
		"name":"Cube.1 160",
		"mesh":1,
		"translation":[3.456242084503174,
		-0.719393253326416,
		-2.756554365158081],
		"rotation":[-0.24163614213466645,
		-0.261666864156723,
		0.6678128242492676,
		-0.6535812616348267],
		"scale":[0.7691786289215088,
		0.7691786289215088,
		0.7691786289215088]
	},
	{
		"name":"Cube 161",
		"mesh":2,
		"translation":[5.269933700561523,
		-1.1570347547531129,
		-3.109227180480957],
		"rotation":[0.16039860248565675,
		-0.17522506415843965,
		-0.8320437669754028,
		0.5012699961662293],
		"scale":[1.0392791032791138,
		1.0392791032791138,
		1.0392791032791138]
	},
	{
		"name":"Cube.2 162",
		"mesh":0,
		"translation":[-5.069919586181641,
		1.9107664823532105,
		-3.022681951522827],
		"rotation":[-0.186509907245636,
		-0.5166080594062805,
		0.4239799380302429,
		-0.7201188206672669],
		"scale":[1.0322428941726685,
		1.0322428941726685,
		1.0322428941726685]
	},
	{
		"name":"Cube.1 163",
		"mesh":1,
		"translation":[-3.111112117767334,
		1.367767572402954,
		-2.8908615112304689],
		"rotation":[-0.1999521702528,
		-0.5392267107963562,
		-0.2820993959903717,
		0.767902135848999],
		"scale":[1.1363521814346314,
		1.1363521814346314,
		1.1363521814346314]
	},
	{
		"name":"Cube 164",
		"mesh":2,
		"translation":[-1.442573070526123,
		1.2652148008346558,
		-2.9544425010681154],
		"rotation":[0.42080339789390566,
		-0.47422659397125246,
		-0.19178001582622529,
		-0.7491689324378967],
		"scale":[0.8164670467376709,
		0.8164670467376709,
		0.8164670467376709]
	},
	{
		"name":"Cube.2 165",
		"mesh":0,
		"translation":[0.7357774972915649,
		2.0621886253356935,
		-2.7415566444396974],
		"rotation":[-0.01094015035778284,
		-0.4185412526130676,
		0.325949102640152,
		-0.8476206064224243],
		"scale":[1.136153221130371,
		1.136153221130371,
		1.136153221130371]
	},
	{
		"name":"Cube.1 166",
		"mesh":1,
		"translation":[3.490241765975952,
		1.9048826694488526,
		-2.8696091175079347],
		"rotation":[0.5329845547676086,
		-0.22315926849842072,
		0.09125711768865586,
		0.8110484480857849],
		"scale":[0.7206524610519409,
		0.7206524610519409,
		0.7206524610519409]
	},
	{
		"name":"Cube 167",
		"mesh":2,
		"translation":[5.330898284912109,
		1.650813341140747,
		-3.220064640045166],
		"rotation":[-0.47812408208847048,
		0.1937485933303833,
		0.13478215038776399,
		0.8459861874580383],
		"scale":[1.142823338508606,
		1.142823338508606,
		1.142823338508606]
	},
	{
		"name":"Cube.2 168",
		"mesh":0,
		"translation":[-4.448534965515137,
		5.864290237426758,
		-2.7921738624572756],
		"rotation":[0.4414977431297302,
		0.8254585862159729,
		-0.2881038188934326,
		0.20172767341136933],
		"scale":[0.5043607950210571,
		0.5043607950210571,
		0.5043607950210571]
	},
	{
		"name":"Cube.1 169",
		"mesh":1,
		"translation":[-2.6475789546966554,
		5.444802284240723,
		-3.062594413757324],
		"rotation":[-0.03885015472769737,
		-0.6608164310455322,
		0.7140147089958191,
		-0.22802478075027467],
		"scale":[0.9521881937980652,
		0.9521881937980652,
		0.9521881937980652]
	},
	{
		"name":"Cube 170",
		"mesh":2,
		"translation":[-1.0552527904510499,
		5.817508697509766,
		-2.8838846683502199],
		"rotation":[0.18947120010852815,
		0.12912677228450776,
		-0.8164674043655396,
		0.5299131274223328],
		"scale":[0.5387007594108582,
		0.5387007594108582,
		0.5387007594108582]
	},
	{
		"name":"Cube.2 171",
		"mesh":0,
		"translation":[0.18440549075603486,
		5.083848476409912,
		-2.8727645874023439],
		"rotation":[0.5129145979881287,
		-0.48508819937705996,
		0.3823428452014923,
		-0.5961728096008301],
		"scale":[0.6057695746421814,
		0.6057695746421814,
		0.6057695746421814]
	},
	{
		"name":"Cube.1 172",
		"mesh":1,
		"translation":[2.5191588401794435,
		5.212311744689941,
		-2.8156423568725588],
		"rotation":[0.5422630310058594,
		0.647039532661438,
		-0.14157290756702424,
		0.516960084438324],
		"scale":[0.9993937611579895,
		0.9993937611579895,
		0.9993937611579895]
	},
	{
		"name":"Cube 173",
		"mesh":2,
		"translation":[5.222025394439697,
		5.345120429992676,
		-4.11785888671875],
		"rotation":[0.18059153854846955,
		0.0068069761618971828,
		0.7454097867012024,
		-0.641642153263092],
		"scale":[0.6486252546310425,
		0.6486252546310425,
		0.6486252546310425]
	},
	{
		"name":"Cube.2 174",
		"mesh":0,
		"translation":[-5.171083927154541,
		9.217729568481446,
		-3.2517011165618898],
		"rotation":[0.266039103269577,
		-0.0685226321220398,
		-0.4441038966178894,
		0.8528186082839966],
		"scale":[1.0001164674758912,
		1.0001164674758912,
		1.0001164674758912]
	},
	{
		"name":"Cube.1 175",
		"mesh":1,
		"translation":[-2.9655117988586427,
		8.863780975341797,
		-3.7956044673919679],
		"rotation":[0.050627537071704867,
		-0.34618496894836428,
		0.6165680289268494,
		-0.7052919268608093],
		"scale":[0.8798331618309021,
		0.8798331618309021,
		0.8798331618309021]
	},
	{
		"name":"Cube 176",
		"mesh":2,
		"translation":[-1.3793715238571168,
		8.724630355834961,
		-2.3205552101135256],
		"rotation":[-0.10763858258724213,
		-0.7472831010818481,
		0.41971495747566225,
		-0.5038067698478699],
		"scale":[0.9012283086776733,
		0.9012283086776733,
		0.9012283086776733]
	},
	{
		"name":"Cube.2 177",
		"mesh":0,
		"translation":[0.6154301166534424,
		9.167393684387207,
		-2.1922850608825685],
		"rotation":[0.5568370223045349,
		0.598166286945343,
		-0.10536458343267441,
		0.5665932297706604],
		"scale":[0.8356114029884338,
		0.8356114029884338,
		0.8356114029884338]
	},
	{
		"name":"Cube.1 178",
		"mesh":1,
		"translation":[2.876354217529297,
		8.783283233642579,
		-2.6817739009857179],
		"rotation":[0.5076261162757874,
		0.5074688792228699,
		0.15212993323802949,
		0.6794464588165283],
		"scale":[0.9879748225212097,
		0.9879748225212097,
		0.9879748225212097]
	},
	{
		"name":"Cube 179",
		"mesh":2,
		"translation":[5.040274143218994,
		9.34676456451416,
		-2.4810984134674074],
		"rotation":[0.5572792291641235,
		-0.711729109287262,
		0.37470659613609316,
		-0.20609831809997559],
		"scale":[1.4306108951568604,
		1.4306108951568604,
		1.4306108951568604]
	},
	{
		"name":"Cube.2 180",
		"mesh":0,
		"translation":[-4.659082889556885,
		-8.183586120605469,
		-3.982391834259033],
		"rotation":[0.4876781702041626,
		0.8454418182373047,
		-0.1186518669128418,
		0.18253737688064576],
		"scale":[0.9681189060211182,
		0.9681189060211182,
		0.9681189060211182]
	},
	{
		"name":"Cube.1 181",
		"mesh":1,
		"translation":[-3.6473469734191896,
		-7.90522575378418,
		-5.042318820953369],
		"rotation":[-0.08231225609779358,
		-0.3756396770477295,
		0.25248804688453677,
		-0.8879016637802124],
		"scale":[0.9778392314910889,
		0.9778392314910889,
		0.9778392314910889]
	},
	{
		"name":"Cube 182",
		"mesh":2,
		"translation":[-0.7148798108100891,
		-7.695990562438965,
		-5.629167556762695],
		"rotation":[0.03285089507699013,
		-0.4180297553539276,
		0.8664697408676148,
		-0.27092820405960085],
		"scale":[0.6666849255561829,
		0.6666849255561829,
		0.6666849255561829]
	},
	{
		"name":"Cube.2 183",
		"mesh":0,
		"translation":[0.48442620038986208,
		-8.199694633483887,
		-5.609281539916992],
		"rotation":[0.03415502980351448,
		-0.1282345950603485,
		0.48933136463165285,
		-0.8619420528411865],
		"scale":[1.0869728326797486,
		1.0869728326797486,
		1.0869728326797486]
	},
	{
		"name":"Cube.1 184",
		"mesh":1,
		"translation":[2.460695266723633,
		-7.883245944976807,
		-5.380569934844971],
		"rotation":[-0.27993160486221316,
		-0.4230336546897888,
		0.44010865688323977,
		-0.7409353852272034],
		"scale":[1.2701106071472169,
		1.2701106071472169,
		1.2701106071472169]
	},
	{
		"name":"Cube 185",
		"mesh":2,
		"translation":[5.042598247528076,
		-8.245478630065918,
		-4.501021385192871],
		"rotation":[0.1120501235127449,
		-0.8636743426322937,
		0.2855287492275238,
		-0.3999808728694916],
		"scale":[0.5794833898544312,
		0.5794833898544312,
		0.5794833898544312]
	},
	{
		"name":"Cube.2 186",
		"mesh":0,
		"translation":[-4.634479522705078,
		-4.94830322265625,
		-5.185745716094971],
		"rotation":[0.2807106673717499,
		-0.00595427118241787,
		-0.4845065772533417,
		0.8285043239593506],
		"scale":[0.868586540222168,
		0.868586540222168,
		0.868586540222168]
	},
	{
		"name":"Cube.1 187",
		"mesh":1,
		"translation":[-3.2747385501861574,
		-5.268510818481445,
		-6.025143146514893],
		"rotation":[0.5318484306335449,
		-0.2243717908859253,
		0.6398578882217407,
		-0.5073227882385254],
		"scale":[1.4320542812347413,
		1.4320542812347413,
		1.4320542812347413]
	},
	{
		"name":"Cube 188",
		"mesh":2,
		"translation":[-1.082195520401001,
		-4.84318733215332,
		-4.951455593109131],
		"rotation":[0.3120105564594269,
		-0.8659881949424744,
		0.34518474340438845,
		-0.1831974983215332],
		"scale":[1.238721489906311,
		1.238721489906311,
		1.238721489906311]
	},
	{
		"name":"Cube.2 189",
		"mesh":0,
		"translation":[0.23234781622886659,
		-4.433706760406494,
		-5.3076395988464359],
		"rotation":[0.5694754123687744,
		-0.33549052476882937,
		0.657181441783905,
		-0.3622933030128479],
		"scale":[0.7421841025352478,
		0.7421841025352478,
		0.7421841025352478]
	},
	{
		"name":"Cube.1 190",
		"mesh":1,
		"translation":[2.5676918029785158,
		-4.7375054359436039,
		-6.265116214752197],
		"rotation":[0.23926663398742677,
		-0.12622103095054627,
		0.8292257189750671,
		-0.4890853464603424],
		"scale":[1.1739062070846558,
		1.1739062070846558,
		1.1739062070846558]
	},
	{
		"name":"Cube 191",
		"mesh":2,
		"translation":[4.611602306365967,
		-4.406585216522217,
		-5.515499114990234],
		"rotation":[0.37685492634773257,
		-0.5125678777694702,
		0.5472410321235657,
		-0.5438582301139832],
		"scale":[0.6766683459281921,
		0.6766683459281921,
		0.6766683459281921]
	},
	{
		"name":"Cube.2 192",
		"mesh":0,
		"translation":[-4.073957443237305,
		-0.8721909523010254,
		-5.414062023162842],
		"rotation":[0.2690003514289856,
		-0.0882505476474762,
		-0.6639984250068665,
		0.6920669674873352],
		"scale":[0.5818595886230469,
		0.5818595886230469,
		0.5818595886230469]
	},
	{
		"name":"Cube.1 193",
		"mesh":1,
		"translation":[-2.160264015197754,
		-1.3932918310165406,
		-5.384700775146484],
		"rotation":[0.41984060406684878,
		-0.23250466585159303,
		-0.7401290535926819,
		0.4710460901260376],
		"scale":[1.1898274421691895,
		1.1898274421691895,
		1.1898274421691895]
	},
	{
		"name":"Cube 194",
		"mesh":2,
		"translation":[-1.4006400108337403,
		-1.336965560913086,
		-4.44130802154541],
		"rotation":[0.5092259049415588,
		0.4497537910938263,
		-0.3363465368747711,
		0.6521361470222473],
		"scale":[1.4028222560882569,
		1.4028222560882569,
		1.4028222560882569]
	},
	{
		"name":"Cube.2 195",
		"mesh":0,
		"translation":[0.698081374168396,
		-1.1991024017333985,
		-5.502209663391113],
		"rotation":[0.45826688408851626,
		-0.44103550910949709,
		0.5366340279579163,
		-0.55452960729599],
		"scale":[0.8588907718658447,
		0.8588907718658447,
		0.8588907718658447]
	},
	{
		"name":"Cube.1 196",
		"mesh":1,
		"translation":[3.014746904373169,
		-0.9186044931411743,
		-4.479087829589844],
		"rotation":[0.15766547620296479,
		0.8466876149177551,
		-0.49610069394111636,
		0.11020788550376892],
		"scale":[0.5327246189117432,
		0.5327246189117432,
		0.5327246189117432]
	},
	{
		"name":"Cube 197",
		"mesh":2,
		"translation":[5.535661220550537,
		-1.02523934841156,
		-4.49736213684082],
		"rotation":[0.12536919116973878,
		0.8781210780143738,
		-0.3444921672344208,
		0.3074265420436859],
		"scale":[1.353872299194336,
		1.353872299194336,
		1.353872299194336]
	},
	{
		"name":"Cube.2 198",
		"mesh":0,
		"translation":[-5.409643173217773,
		1.5070486068725587,
		-4.978296756744385],
		"rotation":[-0.1839682161808014,
		-0.3143783509731293,
		0.1415826678276062,
		-0.9204761385917664],
		"scale":[0.7383902072906494,
		0.7383902072906494,
		0.7383902072906494]
	},
	{
		"name":"Cube.1 199",
		"mesh":1,
		"translation":[-2.8662688732147219,
		2.0570449829101564,
		-4.693727493286133],
		"rotation":[-0.2569950222969055,
		-0.5710826516151428,
		0.20529180765151978,
		-0.752112627029419],
		"scale":[0.7135673761367798,
		0.7135673761367798,
		0.7135673761367798]
	},
	{
		"name":"Cube 200",
		"mesh":2,
		"translation":[-1.5123488903045655,
		1.4479974508285523,
		-5.448762893676758],
		"rotation":[0.5966429710388184,
		-0.22303718328475953,
		-0.1224665492773056,
		-0.761100172996521],
		"scale":[1.401443362236023,
		1.401443362236023,
		1.401443362236023]
	},
	{
		"name":"Cube.2 201",
		"mesh":0,
		"translation":[1.2792003154754639,
		1.788761019706726,
		-4.6379852294921879],
		"rotation":[-0.29895731806755068,
		-0.2601590156555176,
		-0.27370721101760867,
		0.8763710260391235],
		"scale":[0.6129746437072754,
		0.6129746437072754,
		0.6129746437072754]
	},
	{
		"name":"Cube.1 202",
		"mesh":1,
		"translation":[2.6195461750030519,
		1.760461449623108,
		-5.260076522827148],
		"rotation":[-0.47238001227378847,
		0.507107675075531,
		-0.41298946738243105,
		-0.5908795595169067],
		"scale":[1.199076533317566,
		1.199076533317566,
		1.199076533317566]
	},
	{
		"name":"Cube 203",
		"mesh":2,
		"translation":[5.452804088592529,
		1.3895422220230103,
		-4.600430965423584],
		"rotation":[-0.4472286105155945,
		-0.5452345609664917,
		0.441106379032135,
		-0.5550955533981323],
		"scale":[1.0554920434951783,
		1.0554920434951783,
		1.0554920434951783]
	},
	{
		"name":"Cube.2 204",
		"mesh":0,
		"translation":[-5.062742710113525,
		5.775425910949707,
		-4.428276062011719],
		"rotation":[0.6421013474464417,
		-0.12608221173286439,
		-0.5324859023094177,
		0.536905825138092],
		"scale":[0.8981898427009583,
		0.8981898427009583,
		0.8981898427009583]
	},
	{
		"name":"Cube.1 205",
		"mesh":1,
		"translation":[-3.2367076873779299,
		5.482548713684082,
		-4.3686652183532719],
		"rotation":[0.07270050793886185,
		-0.6552168726921082,
		0.19357846677303315,
		-0.7265898585319519],
		"scale":[1.28065824508667,
		1.28065824508667,
		1.28065824508667]
	},
	{
		"name":"Cube 206",
		"mesh":2,
		"translation":[-0.43302634358406069,
		5.496353626251221,
		-4.5021233558654789],
		"rotation":[0.5228462219238281,
		-0.3012748956680298,
		-0.5849324464797974,
		0.5419588088989258],
		"scale":[0.679652214050293,
		0.679652214050293,
		0.679652214050293]
	},
	{
		"name":"Cube.2 207",
		"mesh":0,
		"translation":[0.8388420343399048,
		5.20455265045166,
		-4.408432960510254],
		"rotation":[-0.32855960726737978,
		-0.33353349566459658,
		0.4684548079967499,
		-0.7492356896400452],
		"scale":[1.0200079679489136,
		1.0200079679489136,
		1.0200079679489136]
	},
	{
		"name":"Cube.1 208",
		"mesh":1,
		"translation":[2.939603328704834,
		5.77066707611084,
		-4.709048748016357],
		"rotation":[0.40826845169067385,
		0.8090585470199585,
		-0.20004643499851228,
		0.37245482206344607],
		"scale":[1.1965399980545045,
		1.1965399980545045,
		1.1965399980545045]
	},
	{
		"name":"Cube 209",
		"mesh":2,
		"translation":[4.87056303024292,
		5.69019079208374,
		-5.390097141265869],
		"rotation":[-0.0765671357512474,
		-0.10157513618469238,
		0.48505669832229617,
		-0.8651820421218872],
		"scale":[1.4347823858261109,
		1.4347823858261109,
		1.4347823858261109]
	},
	{
		"name":"Cube.2 210",
		"mesh":0,
		"translation":[-4.89776611328125,
		9.312707901000977,
		-5.095722675323486],
		"rotation":[0.09453139454126358,
		0.7900896072387695,
		-0.6043375730514526,
		-0.03997981548309326],
		"scale":[1.27919602394104,
		1.27919602394104,
		1.27919602394104]
	},
	{
		"name":"Cube.1 211",
		"mesh":1,
		"translation":[-3.263289451599121,
		9.376585006713868,
		-5.40523099899292],
		"rotation":[0.041597552597522739,
		-0.3656803071498871,
		0.7068631649017334,
		-0.6040629148483276],
		"scale":[1.0047796964645386,
		1.0047796964645386,
		1.0047796964645386]
	},
	{
		"name":"Cube 212",
		"mesh":2,
		"translation":[-0.6043316125869751,
		8.882235527038575,
		-4.412347793579102],
		"rotation":[0.5298624634742737,
		0.5513144135475159,
		-0.49329933524131777,
		0.41467326879501345],
		"scale":[1.205810308456421,
		1.205810308456421,
		1.205810308456421]
	},
	{
		"name":"Cube.2 213",
		"mesh":0,
		"translation":[0.6509414315223694,
		8.879010200500489,
		-5.633579730987549],
		"rotation":[0.2898884117603302,
		-0.4710919260978699,
		0.7607622742652893,
		-0.33952590823173525],
		"scale":[1.1825568675994874,
		1.1825568675994874,
		1.1825568675994874]
	},
	{
		"name":"Cube.1 214",
		"mesh":1,
		"translation":[2.5186333656311037,
		9.206026077270508,
		-5.161540985107422],
		"rotation":[0.3720366954803467,
		0.26162561774253847,
		0.10727839916944504,
		0.8840996026992798],
		"scale":[1.1349564790725709,
		1.1349564790725709,
		1.1349564790725709]
	},
	{
		"name":"Cube 215",
		"mesh":2,
		"translation":[5.1806640625,
		9.05685806274414,
		-4.71579122543335],
		"rotation":[-0.31030306220054629,
		-0.6076340675354004,
		0.614128589630127,
		-0.3966597020626068],
		"scale":[0.6564875245094299,
		0.6564875245094299,
		0.6564875245094299]
	}],
	"meshes":[{
		"name":"Cube.2 0",
		"primitives":[{
			"attributes":{
				"POSITION":1,
				"NORMAL":2,
				"TEXCOORD_0":3
			},
			"indices":0,
			"material":0
		}]
	},
	{
		"name":"Cube.1 1",
		"primitives":[{
			"attributes":{
				"POSITION":5,
				"NORMAL":6,
				"TEXCOORD_0":7
			},
			"indices":4,
			"material":1
		}]
	},
	{
		"name":"Cube 2",
		"primitives":[{
			"attributes":{
				"POSITION":9,
				"NORMAL":10,
				"TEXCOORD_0":11
			},
			"indices":8,
			"material":2
		}]
	}],
	"accessors":[{
		"bufferView":0,
		"type":"SCALAR",
		"componentType":5123,
		"count":612,
		"byteOffset":0,
		"min":[0],
		"max":[611]
	},
	{
		"bufferView":1,
		"type":"VEC3",
		"componentType":5126,
		"count":612,
		"byteOffset":0,
		"min":[-0.3343609869480133,
		-0.3343609869480133,
		-0.3343609869480133],
		"max":[0.3343609869480133,
		0.3343609869480133,
		0.3343609869480133]
	},
	{
		"bufferView":1,
		"type":"VEC3",
		"componentType":5126,
		"count":612,
		"byteOffset":12,
		"min":[-0.9832747578620911,
		-0.9865118861198425,
		-0.9832747578620911],
		"max":[0.9832747578620911,
		0.9865118861198425,
		0.9832747578620911]
	},
	{
		"bufferView":1,
		"type":"VEC2",
		"componentType":5126,
		"count":612,
		"byteOffset":24,
		"min":[0.0,
		0.0],
		"max":[1.0,
		1.0]
	},
	{
		"bufferView":2,
		"type":"SCALAR",
		"componentType":5123,
		"count":612,
		"byteOffset":0,
		"min":[0],
		"max":[611]
	},
	{
		"bufferView":3,
		"type":"VEC3",
		"componentType":5126,
		"count":612,
		"byteOffset":0,
		"min":[-0.3343609869480133,
		-0.3343609869480133,
		-0.3343609869480133],
		"max":[0.3343609869480133,
		0.3343609869480133,
		0.3343609869480133]
	},
	{
		"bufferView":3,
		"type":"VEC3",
		"componentType":5126,
		"count":612,
		"byteOffset":12,
		"min":[-0.9832747578620911,
		-0.9865118861198425,
		-0.9832747578620911],
		"max":[0.9832747578620911,
		0.9865118861198425,
		0.9832747578620911]
	},
	{
		"bufferView":3,
		"type":"VEC2",
		"componentType":5126,
		"count":612,
		"byteOffset":24,
		"min":[0.0,
		0.0],
		"max":[1.0,
		1.0]
	},
	{
		"bufferView":4,
		"type":"SCALAR",
		"componentType":5123,
		"count":612,
		"byteOffset":0,
		"min":[0],
		"max":[611]
	},
	{
		"bufferView":5,
		"type":"VEC3",
		"componentType":5126,
		"count":612,
		"byteOffset":0,
		"min":[-0.3343609869480133,
		-0.3343609869480133,
		-0.3343609869480133],
		"max":[0.3343609869480133,
		0.3343609869480133,
		0.3343609869480133]
	},
	{
		"bufferView":5,
		"type":"VEC3",
		"componentType":5126,
		"count":612,
		"byteOffset":12,
		"min":[-0.9832747578620911,
		-0.9865118861198425,
		-0.9832747578620911],
		"max":[0.9832747578620911,
		0.9865118861198425,
		0.9832747578620911]
	},
	{
		"bufferView":5,
		"type":"VEC2",
		"componentType":5126,
		"count":612,
		"byteOffset":24,
		"min":[0.0,
		0.0],
		"max":[1.0,
		1.0]
	}],
	"bufferViews":[{
		"buffer":0,
		"byteOffset":0,
		"byteLength":1224,
		"target":34963
	},
	{
		"buffer":0,
		"byteOffset":1224,
		"byteLength":19584,
		"target":34962,
		"byteStride":32
	},
	{
		"buffer":1,
		"byteOffset":0,
		"byteLength":1224,
		"target":34963
	},
	{
		"buffer":1,
		"byteOffset":1224,
		"byteLength":19584,
		"target":34962,
		"byteStride":32
	},
	{
		"buffer":2,
		"byteOffset":0,
		"byteLength":1224,
		"target":34963
	},
	{
		"buffer":2,
		"byteOffset":1224,
		"byteLength":19584,
		"target":34962,
		"byteStride":32
	}],
	"buffers":[{
		"uri":"data:application/octet-stream;base64,",
		"byteLength":20808
	},
	{
		"uri":"data:application/octet-stream;base64,",
		"byteLength":20808
	},
	{
		"uri":"data:application/octet-stream;base64,",
		"byteLength":20808
	}],
	"materials":[{
		"pbrMetallicRoughness":{
			"baseColorFactor":[0.9999999403953552,
			1.0004657017147516e-7,
			0.2666666507720951,
			1.0],
			"metallicFactor":0.0,
			"roughnessFactor":0.5
		},
		"emissiveFactor":[0.0,
		0.0,
		0.0],
		"alphaMode":"OPAQUE",
		"doubleSided":false,
		"name":"Mat"
	},
	{
		"pbrMetallicRoughness":{
			"baseColorFactor":[0.0,
			0.6666666269302367,
			0.9999999403953552,
			1.0],
			"metallicFactor":0.0,
			"roughnessFactor":0.5
		},
		"emissiveFactor":[0.0,
		0.0,
		0.0],
		"alphaMode":"OPAQUE",
		"doubleSided":false,
		"name":"Mat"
	},
	{
		"pbrMetallicRoughness":{
			"baseColorFactor":[0.9999999403953552,
			0.7666665911674498,
			9.628541878327694e-8,
			1.0],
			"metallicFactor":0.0,
			"roughnessFactor":0.5
		},
		"emissiveFactor":[0.0,
		0.0,
		0.0],
		"alphaMode":"OPAQUE",
		"doubleSided":false,
		"name":"Mat"
	}]
}