{
	"asset":{
		"version":"2.0",
		"generator":"Maxon Cinema 4D 2026.1.0 (#200000219)"
	},
	"scenes":[{
		"nodes":[0]
	}],
	"nodes":[{
		"name":"Cube",
		"mesh":0
	}],
	"meshes":[{
		"name":"Cube",
		"primitives":[{
			"attributes":{
				"POSITION":1,
				"NORMAL":2,
				"TEXCOORD_0":3
			},
			"indices":0,
			"material":0
		}]
	}],
	"accessors":[{
		"bufferView":0,
		"type":"SCALAR",
		"componentType":5123,
		"count":612,
		"byteOffset":0,
		"min":[0],
		"max":[611]
	},
	{
		"bufferView":1,
		"type":"VEC3",
		"componentType":5126,
		"count":612,
		"byteOffset":0,
		"min":[-1.0,
		-1.0,
		-1.0],
		"max":[1.0,
		1.0,
		1.0]
	},
	{
		"bufferView":1,
		"type":"VEC3",
		"componentType":5126,
		"count":612,
		"byteOffset":12,
		"min":[-0.9832747578620911,
		-0.9865118861198425,
		-0.9832747578620911],
		"max":[0.9832747578620911,
		0.9865118861198425,
		0.9832747578620911]
	},
	{
		"bufferView":1,
		"type":"VEC2",
		"componentType":5126,
		"count":612,
		"byteOffset":24,
		"min":[0.0,
		0.0],
		"max":[1.0,
		1.0]
	}],
	"bufferViews":[{
		"buffer":0,
		"byteOffset":0,
		"byteLength":1224,
		"target":34963
	},
	{
		"buffer":0,
		"byteOffset":1224,
		"byteLength":19584,
		"target":34962,
		"byteStride":32
	}],
	"buffers":[{
		"uri":"data:application/octet-stream;base64,",
		"byteLength":20808
	}],
	"materials":[{
		"pbrMetallicRoughness":{
			"baseColorFactor":[0.37159606814384457,
			0.6657010316848754,
			0.9063319563865662,
			1.0],
			"metallicFactor":0.0,
			"roughnessFactor":0.5
		},
		"emissiveFactor":[0.0,
		0.0,
		0.0],
		"alphaMode":"OPAQUE",
		"doubleSided":false,
		"name":"Mat"
	}]
}